<?xml version="1.0" encoding="utf-8"?>
<svg xmlns="http://www.w3.org/2000/svg" xmlns:xlink="http://www.w3.org/1999/xlink" version="1.1" id="图层_1" width="800px" height="800px" x="0px" y="0px" viewBox="0 0 128 26" style="enable-background:new 0 0 128 26;">
<style type="text/css">
	.st0{fill:#068584;}
</style>
<g>
	<g>
		<polygon class="st0" points="111.9,13 111.9,9.8 118.3,9.8 118.3,6.5 118.3,0 115.1,0 115.1,6.5 108.6,6.5 108.6,16.3 118.3,16.3 &#xD;&#xA;			118.3,13"/>
		<polygon class="st0" points="118.3,16.3 118.3,26 121.6,26 121.6,19.5 128,19.5 128,16.3"/>
	</g>
	<path d="M10.3,6.5H0v13h10.3c1.7,0,3.1-1.4,3.1-3.1V9.6C13.4,7.9,12,6.5,10.3,6.5z M11.1,15.9c0,0.7-0.6,1.3-1.3,1.3H2.3V8.8h7.5&#xD;&#xA;		c0.7,0,1.3,0.6,1.3,1.3C11.1,10.1,11.1,15.9,11.1,15.9z"/>
	<path d="M72.3,8.8h-5c-1.7,0-3.1,1.4-3.1,3.1v4.5c0,1.7,1.4,3.1,3.1,3.1h5c1.7,0,3.1-1.4,3.1-3.1v-4.5C75.4,10.2,74,8.8,72.3,8.8z&#xD;&#xA;		 M73.1,16.1c0,0.6-0.5,1-1,1h-4.4c-0.6,0-1-0.5-1-1v-3.9c0-0.6,0.5-1.1,1-1.1H72c0.6,0,1,0.5,1,1.1V16.1z"/>
	<path d="M85,8.8h-5c-1.7,0-3.1,1.4-3.1,3.1v4.5c0,1.7,1.4,3.1,3.1,3.1h5c1.7,0,3.1-1.4,3.1-3.1v-4.5C88.1,10.2,86.7,8.8,85,8.8z&#xD;&#xA;		 M85.8,16.1c0,0.6-0.5,1-1,1h-4.4c-0.6,0-1-0.5-1-1v-3.9c0-0.6,0.5-1.1,1-1.1h4.4c0.6,0,1,0.5,1,1.1V16.1z"/>
	<path d="M93,17.2c-0.6,0-1-0.5-1-1V8.8h-2.3v7.6c0,1.7,1.4,3.1,3.1,3.1h6.4v-2.3L93,17.2L93,17.2z"/>
	<path d="M50.5,9.6v6.8c0,1.7,1.4,3.1,3,3.1h9.2v-2.3h-8.6c-0.7,0-1.3-0.6-1.3-1.3v-5.8c0-0.7,0.6-1.3,1.3-1.3h8.6V6.5h-9.2&#xD;&#xA;		C51.8,6.5,50.5,7.9,50.5,9.6z"/>
	<path d="M15,11.9v4.5c0,1.7,1.4,3.1,3.1,3.1h6.9v-2.3h-6.6c-0.6,0-1-0.5-1-1v-0.8h7.4V13h-7.4v-0.8c0-0.6,0.5-1.1,1-1.1h6.6V8.8H18&#xD;&#xA;		C16.4,8.8,15,10.2,15,11.9z"/>
	<path d="M26.5,11.9v4.5c0,1.7,1.4,3.1,3.1,3.1h6.8v-2.3h-6.6c-0.6,0-1-0.5-1-1v-0.8h7.4V13h-7.4v-0.8c0-0.6,0.5-1.1,1-1.1h6.6V8.8&#xD;&#xA;		h-6.9C27.9,8.8,26.5,10.2,26.5,11.9z"/>
	<path d="M45.8,8.8l-7.8,0v3.7v4.6v2.4h2.3v-2.3h5.5c1.7,0,3-1.4,3-3.1v-2.2C48.9,10.2,47.5,8.8,45.8,8.8z M46.6,13.8&#xD;&#xA;		c0,0.6-0.5,1.1-1,1.1h-5.2v-2.3v-1.4h5.2c0.6,0,1,0.5,1,1.1V13.8z"/>
</g>
</svg>